<svg xmlns="http://www.w3.org/2000/svg" xmlns:xlink="http://www.w3.org/1999/xlink" width="32" height="32" viewBox="0 0 32 32">
  <defs>
    <clipPath id="clip-path">
      <rect id="Rectangle_40" data-name="Rectangle 40" width="32" height="32" transform="translate(2144 -242)" fill="#fff" stroke="#707070" stroke-width="1"/>
    </clipPath>
  </defs>
  <g id="Mask_Group_7" data-name="Mask Group 7" transform="translate(-2144 242)" clip-path="url(#clip-path)">
    <g id="icons8-moleskine" transform="translate(2142.345 -243.655)">
      <path id="Path_13" data-name="Path 13" d="M6.372,32.91H28.441a1.366,1.366,0,0,0,1.379-1.379V6.7a1.366,1.366,0,0,0-1.379-1.379H6.372A1.366,1.366,0,0,0,4.993,6.7V31.531A1.366,1.366,0,0,0,6.372,32.91" fill="#f7f7fb"/>
      <path id="Path_14" data-name="Path 14" d="M23.448,24.276H11.31a.828.828,0,1,0,0,1.655H23.448a.828.828,0,0,0,0-1.655" fill="#457afb"/>
      <path id="Path_15" data-name="Path 15" d="M23.448,19.31H11.31a.828.828,0,1,0,0,1.655H23.448a.828.828,0,0,0,0-1.655" fill="#dfe0e4"/>
      <path id="Path_16" data-name="Path 16" d="M23.448,14.345H11.31a.828.828,0,0,0,0,1.655H23.448a.828.828,0,0,0,0-1.655" fill="#dfe0e4"/>
      <path id="Path_17" data-name="Path 17" d="M24.828,2.483V5.241H23.172V2.483a.828.828,0,1,1,1.655,0Z" fill="#464c55"/>
      <path id="Path_18" data-name="Path 18" d="M12.138,2.483V5.241H10.483V2.483a.828.828,0,0,1,1.655,0Z" fill="#464c55"/>
      <path id="Path_19" data-name="Path 19" d="M28.69,4.414H6.621A2.213,2.213,0,0,0,4.414,6.621V31.448a2.213,2.213,0,0,0,2.207,2.207H28.69A2.213,2.213,0,0,0,30.9,31.448V6.621A2.213,2.213,0,0,0,28.69,4.414Zm.552,27.034A.553.553,0,0,1,28.69,32H6.621a.553.553,0,0,1-.552-.552V6.621a.553.553,0,0,1,.552-.552H28.69a.553.553,0,0,1,.552.552Z" fill="#464c55"/>
    </g>
  </g>
</svg>
